<!DOCTYPE svg PUBLIC "-//W3C//DTD SVG 1.1//EN" "http://www.w3.org/Graphics/SVG/1.1/DTD/svg11.dtd">
<!-- Uploaded to: SVG Repo, www.svgrepo.com, Transformed by: SVG Repo Mixer Tools -->
<svg fill="#000000" height="225px" width="225px" version="1.1" id="Layer_1" xmlns="http://www.w3.org/2000/svg" xmlns:xlink="http://www.w3.org/1999/xlink" viewBox="-4.7 -4.7 479.34 479.34" xml:space="preserve" stroke="#000000" stroke-width="11.27868">
<g id="SVGRepo_bgCarrier" stroke-width="0"/>
<g id="SVGRepo_tracerCarrier" stroke-linecap="round" stroke-linejoin="round"/>
<g id="SVGRepo_iconCarrier"> <g> <g> <g> <path d="M459.353,50.552l3.67-3.67c5.576-5.575,7.949-12.496,6.511-18.987c-1.438-6.491-6.512-11.762-13.921-14.46l-25.832-9.409 c-2.736-0.997-5.808-0.319-7.87,1.744l-3.67,3.67l-6.091-6.091c-2.93-2.929-7.678-2.929-10.607,0 c-2.929,2.929-2.929,7.677,0,10.606l6.091,6.091l-10.54,10.54l-6.028-6.028c-2.93-2.929-7.678-2.929-10.607,0 c-2.929,2.929-2.929,7.678,0,10.607l6.028,6.028l-3.671,3.671c-0.87,0.87-1.513,1.942-1.871,3.12l-4.403,14.466l-122.98,117.398 c-14.393-1.348-41.92-3.851-53.188-4.358c-22.038-0.996-44.539,8.317-61.761,25.541l-7.754,7.753 c-2.366,2.366-2.878,6.014-1.255,8.941c5.742,10.355,1.99,23.451-8.364,29.194l-19.8,10.981 c-10.356,5.743-23.451,1.99-29.194-8.364c-1.142-2.059-3.184-3.462-5.516-3.79c-2.327-0.329-4.682,0.459-6.347,2.124 l-27.188,27.188c-44.26,44.261-44.26,116.279,0,160.539c22.131,22.13,51.201,33.196,80.271,33.196s58.14-11.065,80.271-33.196 l27.188-27.188c1.664-1.665,2.451-4.015,2.123-6.346c-0.327-2.332-1.73-4.374-3.789-5.516 c-5.017-2.782-8.649-7.351-10.229-12.865c-1.58-5.514-0.918-11.313,1.864-16.33l10.981-19.801 c2.782-5.016,7.351-8.649,12.865-10.228c5.513-1.58,11.313-0.917,16.329,1.864c2.927,1.622,6.575,1.111,8.941-1.255l7.753-7.753 c17.224-17.224,26.532-39.736,25.54-61.762c-0.508-11.273-3.01-38.795-4.358-53.188L406.343,92.251l14.466-4.403 c1.178-0.358,2.249-1.001,3.12-1.872l3.67-3.671l6.028,6.028c1.465,1.465,3.384,2.197,5.304,2.197 c1.919,0,3.839-0.732,5.303-2.197c2.93-2.929,2.93-7.677,0.001-10.607l-6.028-6.029l10.54-10.54l6.091,6.091 c1.465,1.464,3.385,2.197,5.304,2.197c1.919,0,3.839-0.732,5.304-2.197c2.929-2.929,2.929-7.678,0-10.607L459.353,50.552z M257.156,319.574l-4.088,4.089c-7.179-2.614-14.974-2.903-22.46-0.758c-9.365,2.683-17.126,8.853-21.851,17.373l-10.981,19.8 c-4.726,8.52-5.851,18.37-3.167,27.736c1.778,6.209,5.09,11.712,9.603,16.094l-21.083,21.083 c-38.41,38.412-100.915,38.412-139.326,0c-38.412-38.412-38.412-100.914,0-139.326l21.092-21.092 c11.196,11.489,29.132,14.591,43.821,6.445l19.801-10.982c15.866-8.8,22.606-27.765,16.611-44.306l4.093-4.093 c14.251-14.252,32.642-21.966,50.479-21.162c8.156,0.367,25.335,1.834,39.472,3.112l-51.551,49.212l-1.927-1.926 c-2.93-2.929-7.678-2.929-10.607,0l-21.213,21.213c-2.929,2.929-2.929,7.678,0,10.606l42.427,42.427 c1.407,1.406,3.314,2.197,5.304,2.197c1.99,0,3.896-0.79,5.304-2.197l21.213-21.213c2.929-2.929,2.929-7.678,0-10.606 l-2.125-2.125l49.212-51.551c1.275,14.133,2.742,31.31,3.11,39.47C279.122,286.922,271.409,305.321,257.156,319.574z M212.209,288.602l-10.606,10.607l-31.82-31.82l10.606-10.607L212.209,288.602z M275.877,207.196 c-0.02,0.019-0.038,0.04-0.057,0.06l-60.435,63.308l-17.156-17.156L383.022,77.001l8.77,8.77L275.877,207.196z M452.416,36.277 l-37.769,37.769l-10.249,3.118l-12.769-12.769l3.119-10.249l7.637-7.637c0.023-0.023,21.151-21.15,21.151-21.15 c0.015-0.015,5.602-5.602,5.602-5.602l21.342,7.773c2.458,0.896,4.106,2.245,4.409,3.611 C455.192,32.506,454.267,34.426,452.416,36.277z"/> <path d="M134.128,301.257c-2.93-2.929-7.678-2.929-10.607,0c-2.929,2.929-2.929,7.677,0,10.606l33.408,33.408 c1.465,1.465,3.385,2.197,5.304,2.197s3.839-0.732,5.304-2.197c2.929-2.929,2.929-7.677,0-10.606L134.128,301.257z"/> <path d="M91.135,315.818c-2.929-2.928-7.677-2.93-10.607,0c-2.929,2.929-2.929,7.678,0,10.606l2.904,2.904L43.72,393.316 c-2.185,3.519-1.103,8.143,2.417,10.327c1.231,0.764,2.598,1.128,3.948,1.128c2.508,0,4.959-1.258,6.379-3.546l21.529-34.689 l24.264,24.264l-34.689,21.528c-3.52,2.184-4.602,6.808-2.417,10.327c1.42,2.288,3.871,3.546,6.379,3.546 c1.351,0,2.717-0.364,3.948-1.128l63.989-39.712l2.903,2.903c1.465,1.465,3.385,2.197,5.304,2.197s3.839-0.732,5.304-2.197 c2.929-2.929,2.929-7.678,0-10.606L91.135,315.818z M115.346,382.677l-29.23-29.23l8.208-13.226l34.248,34.248L115.346,382.677z"/> </g> </g> </g> </g>
</svg>