<!DOCTYPE svg PUBLIC "-//W3C//DTD SVG 1.1//EN" "http://www.w3.org/Graphics/SVG/1.1/DTD/svg11.dtd">
<!-- Uploaded to: SVG Repo, www.svgrepo.com, Transformed by: SVG Repo Mixer Tools -->
<svg fill="#000000" height="800px" width="800px" version="1.1" id="Layer_1" xmlns="http://www.w3.org/2000/svg" xmlns:xlink="http://www.w3.org/1999/xlink" viewBox="0 0 512 512" xml:space="preserve" stroke="#000000" stroke-width="8.192">
<g id="SVGRepo_bgCarrier" stroke-width="0"/>
<g id="SVGRepo_tracerCarrier" stroke-linecap="round" stroke-linejoin="round"/>
<g id="SVGRepo_iconCarrier"> <g> <g> <path d="M498.266,30.18h-70.018h-68.152h-68.212h-69.958h-68.212H83.754h-70.02C6.149,30.18,0,36.33,0,43.914V169.99 c0,7.584,6.149,13.734,13.734,13.734h68.683l153.353,141.8l-104.92,97.017c-5.569,5.149-5.91,13.838-0.76,19.407 c2.707,2.928,6.392,4.41,10.088,4.41c3.335,0,6.679-1.207,9.321-3.651l106.501-98.478l106.501,98.478 c2.642,2.443,5.985,3.651,9.32,3.651c3.696,0,7.381-1.482,10.088-4.41c5.15-5.569,4.81-14.259-0.76-19.407l-104.92-97.017 l153.353-141.8h68.683c7.584,0,13.734-6.15,13.734-13.734V43.914C512,36.328,505.85,30.18,498.266,30.18z M373.828,57.648h40.684 v32.961h-40.684V57.648z M305.616,57.648h40.745v32.961h-40.745V57.648z M235.658,57.648h42.49v32.961h-42.49V57.648z M167.446,57.648h40.744v32.961h-40.744V57.648z M97.488,57.648h42.49v32.961h-42.49V57.648z M255.999,306.818L122.875,183.722 h266.249L255.999,306.818z M27.468,156.255V57.648H70.02v46.695v0.515c0,7.584,6.149,13.734,13.734,13.734h344.493 c7.584,0,13.734-6.15,13.734-13.734v-0.515V57.648h42.55v98.607H27.468z"/> </g> </g> <g> <g> <path d="M111.548,458.389l-0.22-0.22c-5.356-5.371-14.053-5.385-19.423-0.029c-5.373,5.355-5.385,14.051-0.03,19.424l0.22,0.22 c2.684,2.69,6.205,4.036,9.726,4.036c3.508,0,7.017-1.336,9.696-4.008C116.891,472.458,116.903,463.762,111.548,458.389z"/> </g> </g> <g> <g> <path d="M420.08,458.124c-5.381-5.344-14.077-5.319-19.424,0.059l-0.218,0.22c-5.348,5.381-5.32,14.076,0.059,19.424 c2.679,2.662,6.18,3.992,9.682,3.992c3.528,0,7.058-1.351,9.741-4.052l0.218-0.22C425.487,472.167,425.46,463.472,420.08,458.124z "/> </g> </g> </g>
</svg>