<!DOCTYPE svg PUBLIC "-//W3C//DTD SVG 1.1//EN" "http://www.w3.org/Graphics/SVG/1.1/DTD/svg11.dtd">
<!-- Uploaded to: SVG Repo, www.svgrepo.com, Transformed by: SVG Repo Mixer Tools -->
<svg fill="#000000" version="1.1" id="Layer_1" xmlns="http://www.w3.org/2000/svg" xmlns:xlink="http://www.w3.org/1999/xlink" viewBox="-35.84 -35.84 583.68 583.68" xml:space="preserve" width="188px" height="188px" stroke="#000000" stroke-width="8.704">
<g id="SVGRepo_bgCarrier" stroke-width="0"/>
<g id="SVGRepo_tracerCarrier" stroke-linecap="round" stroke-linejoin="round"/>
<g id="SVGRepo_iconCarrier"> <g> <g> <path d="M470.694,41.306C444.056,14.669,408.64,0,370.97,0c-37.671,0-73.086,14.669-99.723,41.306 c-26.638,26.635-41.307,62.052-41.307,99.723c0,1.818,0.045,3.631,0.113,5.438L44.616,363.886 c-21.623,24.583-23.844,60.029-7.31,86.872L0,488.067L23.934,512l37.313-37.314c11.738,7.23,25.113,10.889,38.516,10.889 c17.227-0.001,34.485-6.017,48.309-18.157l217.459-185.472c1.807,0.069,3.619,0.114,5.438,0.114 c37.662,0,73.07-14.664,99.706-41.291c0.007-0.006,0.014-0.011,0.019-0.017c26.635-26.635,41.305-62.051,41.306-99.722 C512,103.358,497.331,67.943,470.694,41.306z M126.01,441.749l-0.211,0.183c-15.575,13.734-39.294,12.969-53.999-1.734 c-14.707-14.705-15.467-38.427-1.732-54L238.272,188.99c6.939,19.238,18.086,36.872,32.975,51.761 c14.891,14.891,32.525,26.037,51.761,32.978L126.01,441.749z M370.969,248.212c-28.629,0-55.544-11.15-75.788-31.394 s-31.393-47.16-31.393-75.789c0-8.144,0.905-16.147,2.662-23.898c10.265,25.172,28.821,51.911,52.665,75.754 c23.844,23.844,50.582,42.4,75.755,52.666C387.118,247.309,379.114,248.212,370.969,248.212z M446.76,216.818 c-5.438,5.438-19.232,4.912-36-1.376c-21.578-8.092-46.258-25.037-67.712-46.49c-21.453-21.453-38.398-46.134-46.49-67.712 c-6.288-16.767-6.815-30.562-1.376-36c20.244-20.243,47.159-31.392,75.789-31.392s55.545,11.149,75.791,31.392 c20.243,20.244,31.392,47.16,31.392,75.79C478.153,169.659,467.004,196.574,446.76,216.818z"/> </g> </g> <g> <g> <rect x="193.522" y="267.71" transform="matrix(0.7071 -0.7071 0.7071 0.7071 -134.6712 244.1409)" width="67.694" height="33.847"/> </g> </g> </g>
</svg>